<svg width="134" height="21" viewBox="0 0 134 21" fill="none" xmlns="http://www.w3.org/2000/svg">
<path d="M4.41831 21C3.72765 21 3.09298 20.832 2.51431 20.496C1.93565 20.16 1.47831 19.7027 1.14231 19.124C0.806313 18.5453 0.638313 17.9107 0.638313 17.22V4.62C0.638313 3.92933 0.806313 3.29467 1.14231 2.716C1.47831 2.13733 1.93565 1.68 2.51431 1.344C3.09298 1.008 3.72765 0.839999 4.41831 0.839999H17.0183C17.709 0.839999 18.3343 1.008 18.8943 1.344C19.473 1.68 19.9303 2.13733 20.2663 2.716C20.621 3.29467 20.7983 3.92933 20.7983 4.62V5.992H17.4103V4.732C17.4103 4.58267 17.3543 4.46133 17.2423 4.368C17.149 4.27467 17.037 4.228 16.9063 4.228H4.50231C4.37165 4.228 4.25031 4.27467 4.13831 4.368C4.04498 4.46133 3.99831 4.58267 3.99831 4.732V17.108C3.99831 17.2573 4.04498 17.3787 4.13831 17.472C4.25031 17.5653 4.37165 17.612 4.50231 17.612H16.9063C17.037 17.612 17.149 17.5653 17.2423 17.472C17.3543 17.3787 17.4103 17.2573 17.4103 17.108V13.16H12.7623V9.772H20.7983V17.22C20.7983 17.9107 20.621 18.5453 20.2663 19.124C19.9303 19.7027 19.473 20.16 18.8943 20.496C18.3343 20.832 17.709 21 17.0183 21H4.41831ZM23.9085 21V0.812H27.2685V17.612H44.0685V21H23.9085ZM45.7568 21V4.62C45.7568 3.92933 45.9248 3.29467 46.2608 2.716C46.5968 2.13733 47.0541 1.68 47.6328 1.344C48.2115 1.008 48.8461 0.839999 49.5368 0.839999H62.1368C62.8275 0.839999 63.4528 1.008 64.0128 1.344C64.5915 1.68 65.0488 2.13733 65.3848 2.716C65.7395 3.29467 65.9168 3.92933 65.9168 4.62V21H62.5288V14.084H49.1168V21H45.7568ZM49.1168 10.724H62.5288V4.732C62.5288 4.58267 62.4728 4.46133 62.3608 4.368C62.2675 4.27467 62.1555 4.228 62.0248 4.228H49.6208C49.4901 4.228 49.3688 4.27467 49.2568 4.368C49.1635 4.46133 49.1168 4.58267 49.1168 4.732V10.724ZM69.1071 21V0.839999H72.9431L85.8791 16.24V0.839999H89.2671V21H85.4311L72.4671 5.572V21H69.1071ZM96.1839 21C95.4933 21 94.8586 20.832 94.2799 20.496C93.7013 20.16 93.2439 19.7027 92.9079 19.124C92.5719 18.5453 92.4039 17.9107 92.4039 17.22V4.62C92.4039 3.92933 92.5719 3.29467 92.9079 2.716C93.2439 2.13733 93.7013 1.68 94.2799 1.344C94.8586 1.008 95.4933 0.839999 96.1839 0.839999H112.508V4.228H96.7719C96.4733 4.228 96.2306 4.32133 96.0439 4.508C95.8573 4.676 95.7639 4.90933 95.7639 5.208V16.632C95.7639 16.9307 95.8573 17.1733 96.0439 17.36C96.2306 17.528 96.4733 17.612 96.7719 17.612H112.508V21H96.1839ZM115.483 21V0.839999H133.991V4.228H118.871V9.24H131.051V12.6H118.871V17.612H133.991V21H115.483Z" fill="white"/>
</svg>
